<?xml version="1.0" encoding="UTF-8" standalone="no"?>
<svg width="14.951" height="12.075" viewBox="0 0 14.951 12.075" version="1.1" id="svg8" xmlns="http://www.w3.org/2000/svg" xmlns:svg="http://www.w3.org/2000/svg">
   <defs id="defs6">
      <linearGradient id="a" x1="7.4755998" y1="0" y2="12.0747" gradientUnits="userSpaceOnUse">
         <stop offset="0" style="stop-color:#5B5B5F" id="stop1" />
         <stop offset=".0807" style="stop-color:#505053" id="stop2" />
         <stop offset=".3078" style="stop-color:#363638" id="stop3" />
         <stop offset=".5369" style="stop-color:#232324" id="stop4" />
         <stop offset=".767" style="stop-color:#181818" id="stop5" />
         <stop offset="1" style="stop-color:#141414" id="stop6" />
      </linearGradient>
   </defs>
   <path fill="url(#a)" d="M 14.951,6.0379999 A 6.038,6.038 0 0 1 8.9140001,12.075 h -2.877 A 6.038,6.038 0 0 1 1.0681153e-7,6.0379999 6.038,6.038 0 0 1 6.0370001,-9.5367431e-8 h 2.877 A 6.038,6.038 0 0 1 14.951,6.0379999 Z" id="path6" style="fill:url(#a)" />
   <path id="path21" style="fill:#eaeaea;fill-opacity:1" d="m 2.5008911,2.5003909 v 3.074218 h 1 v -2.074218 h 3 v -1 z m 5.949218,0 v 1 h 2.9999999 v 2.074218 h 1 v -3.074218 z m -2.974609,3.037109 v 1 h 4 v -1 z m -2.974609,0.962891 v 3.074218 h 4 v -1 h -3 v -2.074218 z m 8.9492179,0 v 2.074218 H 8.4501091 v 1 h 3.9999999 v -3.074218 z" />
</svg>