<?xml version="1.0" encoding="UTF-8" standalone="no"?>
<svg
   width="15"
   height="12.114"
   version="1.1"
   id="svg6"
   sodipodi:docname="rewind-button.svg"
   inkscape:version="1.4.2 (f4327f4, 2025-05-13)"
   xmlns:inkscape="http://www.inkscape.org/namespaces/inkscape"
   xmlns:sodipodi="http://sodipodi.sourceforge.net/DTD/sodipodi-0.dtd"
   xmlns="http://www.w3.org/2000/svg"
   xmlns:svg="http://www.w3.org/2000/svg">
  <sodipodi:namedview
     id="namedview1"
     pagecolor="#ffffff"
     bordercolor="#000000"
     borderopacity="0.25"
     inkscape:showpageshadow="2"
     inkscape:pageopacity="0.0"
     inkscape:pagecheckerboard="0"
     inkscape:deskcolor="#d1d1d1"
     inkscape:zoom="67.194979"
     inkscape:cx="7.5005604"
     inkscape:cy="7.2475653"
     inkscape:window-width="1920"
     inkscape:window-height="1009"
     inkscape:window-x="-8"
     inkscape:window-y="-8"
     inkscape:window-maximized="1"
     inkscape:current-layer="svg6" />
  <defs
     id="defs6" />
  <linearGradient
     id="a"
     x1="7.4994998"
     y1="0"
     y2="12.1133"
     gradientUnits="userSpaceOnUse">
    <stop
       offset="0"
       style="stop-color:#5B5B5F"
       id="stop1" />
    <stop
       offset=".0807"
       style="stop-color:#505053"
       id="stop2" />
    <stop
       offset=".3078"
       style="stop-color:#363638"
       id="stop3" />
    <stop
       offset=".5369"
       style="stop-color:#232324"
       id="stop4" />
    <stop
       offset=".767"
       style="stop-color:#181818"
       id="stop5" />
    <stop
       offset="1"
       style="stop-color:#141414"
       id="stop6" />
  </linearGradient>
  <path
     fill="url(#a)"
     d="m 0,6.057 a 6.057,6.057 0 0 0 6.057,6.057 H 8.943 A 6.057,6.057 0 0 0 15,6.057 6.057,6.057 0 0 0 8.942,8.216104e-8 H 6.057 A 6.057,6.057 0 0 0 0,6.057 Z"
     id="path6"
     style="fill:url(#a)" />
  <g
     id="g1">
    <polygon
       fill="#eaeaea"
       points="8.917,8.56 8.917,6.058 8.917,3.554 6.75,4.806 4.582,6.058 6.75,7.309 "
       id="polygon6"
       transform="translate(-2.3061649)" />
    <polygon
       fill="#eaeaea"
       points="8.917,6.058 8.917,3.554 6.75,4.806 4.582,6.058 6.75,7.309 8.917,8.56 "
       id="polygon1"
       transform="translate(2.9174397)" />
  </g>
</svg>
